<svg width="1034" height="767" viewBox="0 0 1034 767" fill="none" xmlns="http://www.w3.org/2000/svg">
<path d="M836.796 0C748.015 0 676.077 71.6485 676.077 160.397C676.077 313.852 836.796 513.979 836.796 513.979C836.796 513.979 997.515 313.82 997.515 160.397C997.515 71.6806 925.577 0 836.796 0ZM836.796 249.146C813.778 249.146 791.703 240.003 775.427 223.727C759.151 207.451 750.008 185.376 750.008 162.358C750.008 139.34 759.151 117.266 775.427 100.99C791.703 84.7137 813.778 75.57 836.796 75.57C859.813 75.57 881.888 84.7137 898.164 100.99C914.44 117.266 923.584 139.34 923.584 162.358C923.584 185.376 914.44 207.451 898.164 223.727C881.888 240.003 859.813 249.146 836.796 249.146Z" fill="#F2C94C"/>
<path d="M83.5995 442.795L6.15456 180.2H85.651L121.553 341.757H123.604L166.173 180.2H228.745L271.314 342.27H273.365L309.267 180.2H388.763L311.318 442.795H243.105L198.485 296.111H196.433L151.813 442.795H83.5995ZM411.843 442.795V180.2H601.096V237.643H483.133V282.776H591.351V340.219H483.133V385.352H600.583V442.795H411.843ZM192.444 643.282H139.343C138.966 638.888 137.962 634.903 136.33 631.325C134.761 627.747 132.564 624.672 129.74 622.098C126.978 619.462 123.62 617.453 119.665 616.072C115.711 614.629 111.223 613.907 106.202 613.907C97.4145 613.907 89.9766 616.041 83.8882 620.309C77.8626 624.577 73.2806 630.697 70.1422 638.669C67.0666 646.64 65.5289 656.212 65.5289 667.385C65.5289 679.185 67.098 689.071 70.2364 697.042C73.4375 704.951 78.0509 710.914 84.0765 714.931C90.1022 718.885 97.3518 720.862 105.825 720.862C110.658 720.862 114.989 720.266 118.818 719.073C122.647 717.818 125.974 716.029 128.798 713.707C131.623 711.384 133.914 708.591 135.671 705.327C137.491 702.001 138.715 698.266 139.343 694.123L192.444 694.5C191.816 702.66 189.525 710.976 185.571 719.45C181.617 727.861 175.999 735.644 168.718 742.799C161.5 749.892 152.555 755.604 141.885 759.935C131.215 764.266 118.818 766.431 104.696 766.431C86.9952 766.431 71.1151 762.634 57.0553 755.039C43.0582 747.444 31.9798 736.271 23.8201 721.521C15.7232 706.771 11.6747 688.725 11.6747 667.385C11.6747 645.918 15.8173 627.841 24.1026 613.154C32.3878 598.404 43.5604 587.262 57.6202 579.73C71.68 572.136 87.3718 568.338 104.696 568.338C116.872 568.338 128.076 570.001 138.307 573.328C148.538 576.655 157.514 581.519 165.234 587.921C172.955 594.261 179.169 602.075 183.876 611.365C188.584 620.654 191.44 631.294 192.444 643.282ZM216.193 763.795V570.974H268.541V646.295H337.836V570.974H390.184V763.795H337.836V688.474H268.541V763.795H216.193ZM465.128 763.795H408.637L472.283 570.974H543.838L607.484 763.795H550.993L508.814 624.075H507.307L465.128 763.795ZM454.583 687.721H560.785V726.888H454.583V687.721ZM792.89 570.974V763.795H749.204L679.532 662.489H678.403V763.795H626.055V570.974H670.494L739.036 671.904H740.542V570.974H792.89ZM867.739 763.795H811.249L874.895 570.974H946.449L1010.1 763.795H953.605L911.425 624.075H909.919L867.739 763.795ZM857.195 687.721H963.397V726.888H857.195V687.721Z" fill="#56CCF2"/>
<path d="M841.812 278.553C826.099 278.553 811.028 272.31 799.917 261.199C788.806 250.088 782.563 235.017 782.563 219.303V171.904C782.563 168.761 783.812 165.747 786.034 163.525C788.256 161.303 791.27 160.054 794.413 160.054H806.263C809.406 160.054 812.42 158.806 814.642 156.583C816.864 154.361 818.113 151.347 818.113 148.204C818.113 145.062 816.864 142.048 814.642 139.825C812.42 137.603 809.406 136.354 806.263 136.354H794.413C784.985 136.354 775.943 140.1 769.276 146.767C762.609 153.434 758.864 162.476 758.864 171.904V219.303C758.879 232.691 762.143 245.874 768.377 257.722C774.61 269.569 783.626 279.726 794.65 287.321C805.242 296.659 813.831 308.047 819.901 320.796C825.97 333.546 829.393 347.393 829.963 361.501C829.963 383.501 838.702 404.599 854.258 420.155C869.814 435.711 890.912 444.45 912.911 444.45C934.911 444.45 956.009 435.711 971.565 420.155C987.121 404.599 995.86 383.501 995.86 361.501V347.993C1007.03 345.109 1016.77 338.249 1023.24 328.701C1029.72 319.153 1032.49 307.571 1031.03 296.126C1029.58 284.681 1024 274.159 1015.34 266.533C1006.69 258.907 995.547 254.699 984.011 254.699C972.474 254.699 961.333 258.907 952.677 266.533C944.02 274.159 938.443 284.681 936.989 296.126C935.535 307.571 938.305 319.153 944.78 328.701C951.255 338.249 960.99 345.109 972.161 347.993V361.501C972.161 377.215 965.918 392.286 954.807 403.397C943.696 414.508 928.625 420.751 912.911 420.751C897.198 420.751 882.127 414.508 871.016 403.397C859.905 392.286 853.662 377.215 853.662 361.501C854.262 347.375 857.722 333.518 863.832 320.767C869.943 308.017 878.577 296.639 889.212 287.321C900.192 279.7 909.162 269.531 915.353 257.685C921.544 245.839 924.773 232.67 924.761 219.303V171.904C924.761 162.476 921.016 153.434 914.349 146.767C907.682 140.1 898.64 136.354 889.212 136.354H877.362C874.219 136.354 871.205 137.603 868.983 139.825C866.761 142.048 865.512 145.062 865.512 148.204C865.512 151.347 866.761 154.361 868.983 156.583C871.205 158.806 874.219 160.054 877.362 160.054H889.212C892.355 160.054 895.369 161.303 897.591 163.525C899.813 165.747 901.062 168.761 901.062 171.904V219.303C901.062 227.084 899.529 234.789 896.552 241.977C893.574 249.166 889.21 255.697 883.708 261.199C878.206 266.701 871.675 271.065 864.486 274.043C857.298 277.02 849.593 278.553 841.812 278.553V278.553ZM984.011 325.952C977.725 325.952 971.697 323.455 967.252 319.01C962.808 314.566 960.311 308.538 960.311 302.252C960.311 295.967 962.808 289.939 967.252 285.494C971.697 281.05 977.725 278.553 984.011 278.553C990.296 278.553 996.324 281.05 1000.77 285.494C1005.21 289.939 1007.71 295.967 1007.71 302.252C1007.71 308.538 1005.21 314.566 1000.77 319.01C996.324 323.455 990.296 325.952 984.011 325.952Z" fill="white"/>
</svg>
