<svg width="1034" height="767" viewBox="0 0 1034 767" fill="none" xmlns="http://www.w3.org/2000/svg">
<path d="M848.6 183.362C805.203 150.018 743.129 158.023 709.797 201.405C652.163 276.416 655.562 434.604 655.562 434.604C655.562 434.604 809.299 397.125 866.921 322.129C900.241 278.763 891.998 216.706 848.6 183.362ZM755.027 305.149C743.775 296.504 736.419 283.744 734.576 269.675C732.733 255.606 736.554 241.382 745.199 230.13C753.844 218.879 766.604 211.522 780.673 209.679C794.742 207.836 808.967 211.657 820.218 220.302C831.469 228.947 838.826 241.707 840.669 255.776C842.512 269.845 838.691 284.07 830.046 295.321C821.401 306.573 808.641 313.929 794.572 315.772C780.503 317.615 766.278 313.794 755.027 305.149Z" fill="#EB5757"/>
<path d="M83.5995 442.795L6.15456 180.2H85.651L121.553 341.757H123.604L166.173 180.2H228.745L271.314 342.27H273.365L309.267 180.2H388.763L311.318 442.795H243.105L198.485 296.111H196.433L151.813 442.795H83.5995ZM411.843 442.795V180.2H601.096V237.643H483.133V282.776H591.351V340.219H483.133V385.352H600.583V442.795H411.843ZM192.444 643.282H139.343C138.966 638.888 137.962 634.903 136.33 631.325C134.761 627.747 132.564 624.672 129.74 622.098C126.978 619.462 123.62 617.453 119.665 616.072C115.711 614.629 111.223 613.907 106.202 613.907C97.4145 613.907 89.9766 616.041 83.8882 620.309C77.8626 624.577 73.2806 630.697 70.1422 638.669C67.0666 646.64 65.5289 656.212 65.5289 667.385C65.5289 679.185 67.098 689.071 70.2364 697.042C73.4375 704.951 78.0509 710.914 84.0765 714.931C90.1022 718.885 97.3518 720.862 105.825 720.862C110.658 720.862 114.989 720.266 118.818 719.073C122.647 717.818 125.974 716.029 128.798 713.707C131.623 711.384 133.914 708.591 135.671 705.327C137.491 702.001 138.715 698.266 139.343 694.123L192.444 694.5C191.816 702.66 189.525 710.976 185.571 719.45C181.617 727.861 175.999 735.644 168.718 742.799C161.5 749.892 152.555 755.604 141.885 759.935C131.215 764.266 118.818 766.431 104.696 766.431C86.9952 766.431 71.1151 762.634 57.0553 755.039C43.0582 747.444 31.9798 736.271 23.8201 721.521C15.7232 706.771 11.6747 688.725 11.6747 667.385C11.6747 645.918 15.8173 627.841 24.1026 613.154C32.3878 598.404 43.5604 587.262 57.6202 579.73C71.68 572.136 87.3718 568.338 104.696 568.338C116.872 568.338 128.076 570.001 138.307 573.328C148.538 576.655 157.514 581.519 165.234 587.921C172.955 594.261 179.169 602.075 183.876 611.365C188.584 620.654 191.44 631.294 192.444 643.282ZM216.193 763.795V570.974H268.541V646.295H337.836V570.974H390.184V763.795H337.836V688.474H268.541V763.795H216.193ZM465.128 763.795H408.637L472.283 570.974H543.838L607.484 763.795H550.993L508.814 624.075H507.307L465.128 763.795ZM454.583 687.721H560.785V726.888H454.583V687.721ZM792.89 570.974V763.795H749.204L679.532 662.489H678.403V763.795H626.055V570.974H670.494L739.036 671.904H740.542V570.974H792.89ZM867.739 763.795H811.249L874.895 570.974H946.449L1010.1 763.795H953.605L911.425 624.075H909.919L867.739 763.795ZM857.195 687.721H963.397V726.888H857.195V687.721Z" fill="#56CCF2"/>
<path d="M863.774 357.701C851.481 357.701 839.691 352.817 830.998 344.124C822.305 335.431 817.422 323.641 817.422 311.348V274.266C817.422 271.807 818.398 269.449 820.137 267.711C821.876 265.972 824.234 264.995 826.692 264.995H835.963C838.421 264.995 840.779 264.019 842.518 262.28C844.257 260.542 845.233 258.184 845.233 255.725C845.233 253.266 844.257 250.908 842.518 249.17C840.779 247.431 838.421 246.454 835.963 246.454H826.692C819.316 246.454 812.242 249.384 807.027 254.6C801.811 259.816 798.881 266.89 798.881 274.266V311.348C798.893 321.821 801.447 332.135 806.323 341.404C811.2 350.672 818.253 358.619 826.878 364.561C835.164 371.866 841.884 380.775 846.632 390.749C851.38 400.723 854.058 411.556 854.504 422.594C854.504 439.805 861.341 456.311 873.511 468.481C885.681 480.651 902.187 487.488 919.397 487.488C936.608 487.488 953.114 480.651 965.284 468.481C977.454 456.311 984.291 439.805 984.291 422.594V412.026C993.03 409.769 1000.65 404.403 1005.71 396.933C1010.78 389.463 1012.94 380.402 1011.81 371.449C1010.67 362.495 1006.31 354.264 999.534 348.297C992.762 342.331 984.046 339.039 975.021 339.039C965.995 339.039 957.279 342.331 950.507 348.297C943.735 354.264 939.371 362.495 938.234 371.449C937.097 380.402 939.264 389.463 944.33 396.933C949.395 404.403 957.011 409.769 965.75 412.026V422.594C965.75 434.888 960.866 446.678 952.174 455.37C943.481 464.063 931.691 468.947 919.397 468.947C907.104 468.947 895.314 464.063 886.621 455.37C877.928 446.678 873.045 434.888 873.045 422.594C873.514 411.543 876.221 400.701 881.001 390.726C885.782 380.751 892.536 371.85 900.856 364.561C909.447 358.598 916.464 350.643 921.308 341.375C926.151 332.108 928.677 321.805 928.668 311.348V274.266C928.668 266.89 925.738 259.816 920.522 254.6C915.306 249.384 908.232 246.454 900.856 246.454H891.586C889.127 246.454 886.769 247.431 885.031 249.17C883.292 250.908 882.315 253.266 882.315 255.725C882.315 258.184 883.292 260.542 885.031 262.28C886.769 264.019 889.127 264.995 891.586 264.995H900.856C903.315 264.995 905.673 265.972 907.412 267.711C909.15 269.449 910.127 271.807 910.127 274.266V311.348C910.127 317.435 908.928 323.463 906.599 329.086C904.269 334.71 900.855 339.82 896.551 344.124C892.246 348.428 887.136 351.843 881.513 354.172C875.889 356.502 869.861 357.701 863.774 357.701V357.701ZM975.021 394.783C970.103 394.783 965.387 392.829 961.91 389.352C958.433 385.875 956.479 381.159 956.479 376.242C956.479 371.324 958.433 366.608 961.91 363.131C965.387 359.654 970.103 357.701 975.021 357.701C979.938 357.701 984.654 359.654 988.131 363.131C991.608 366.608 993.562 371.324 993.562 376.242C993.562 381.159 991.608 385.875 988.131 389.352C984.654 392.829 979.938 394.783 975.021 394.783Z" fill="#F2C94C"/>
</svg>
